<svg width="195" height="392" viewBox="0 0 195 392" fill="none" xmlns="http://www.w3.org/2000/svg">
    <ellipse cx="3.21322" cy="2.9254" rx="3.21322" ry="2.92537" fill="#7854F7"/>
    <ellipse cx="50.3402" cy="2.92537" rx="3.21322" ry="2.92537" fill="#7854F7"/>
    <ellipse cx="97.4681" cy="2.92537" rx="3.21322" ry="2.92537" fill="#7854F7"/>
    <ellipse cx="144.595" cy="2.92537" rx="3.21322" ry="2.92537" fill="#7854F7"/>
    <ellipse cx="191.722" cy="2.92537" rx="3.21322" ry="2.92537" fill="#7854F7"/>
    <ellipse cx="3.21322" cy="45.8309" rx="3.21322" ry="2.92537" fill="#7854F7"/>
    <ellipse cx="50.3402" cy="45.8309" rx="3.21322" ry="2.92537" fill="#7854F7"/>
    <ellipse cx="97.4681" cy="45.8309" rx="3.21322" ry="2.92537" fill="#7854F7"/>
    <ellipse cx="144.595" cy="45.8309" rx="3.21322" ry="2.92537" fill="#7854F7"/>
    <ellipse cx="191.722" cy="45.8309" rx="3.21322" ry="2.92537" fill="#7854F7"/>
    <ellipse cx="3.21322" cy="88.7364" rx="3.21322" ry="2.92537" fill="#7854F7"/>
    <ellipse cx="50.3402" cy="88.7364" rx="3.21322" ry="2.92537" fill="#7854F7"/>
    <ellipse cx="97.4681" cy="88.7364" rx="3.21322" ry="2.92537" fill="#7854F7"/>
    <ellipse cx="144.595" cy="88.7364" rx="3.21322" ry="2.92537" fill="#7854F7"/>
    <ellipse cx="191.722" cy="88.7364" rx="3.21322" ry="2.92537" fill="#7854F7"/>
    <ellipse cx="3.21322" cy="131.642" rx="3.21322" ry="2.92537" fill="#7854F7"/>
    <ellipse cx="50.3402" cy="131.642" rx="3.21322" ry="2.92537" fill="#7854F7"/>
    <ellipse cx="97.4681" cy="131.642" rx="3.21322" ry="2.92537" fill="#7854F7"/>
    <ellipse cx="144.595" cy="131.642" rx="3.21322" ry="2.92537" fill="#7854F7"/>
    <ellipse cx="191.722" cy="131.642" rx="3.21322" ry="2.92537" fill="#7854F7"/>
    <ellipse cx="3.21322" cy="174.547" rx="3.21322" ry="2.92537" fill="#7854F7"/>
    <ellipse cx="50.3402" cy="174.547" rx="3.21322" ry="2.92537" fill="#7854F7"/>
    <ellipse cx="97.4681" cy="174.547" rx="3.21322" ry="2.92537" fill="#7854F7"/>
    <ellipse cx="144.595" cy="174.547" rx="3.21322" ry="2.92537" fill="#7854F7"/>
    <ellipse cx="191.722" cy="174.547" rx="3.21322" ry="2.92537" fill="#7854F7"/>
    <ellipse cx="3.21322" cy="217.453" rx="3.21322" ry="2.92537" fill="#7854F7"/>
    <ellipse cx="50.3402" cy="217.453" rx="3.21322" ry="2.92537" fill="#7854F7"/>
    <ellipse cx="97.4681" cy="217.453" rx="3.21322" ry="2.92537" fill="#7854F7"/>
    <ellipse cx="144.595" cy="217.453" rx="3.21322" ry="2.92537" fill="#7854F7"/>
    <ellipse cx="191.722" cy="217.453" rx="3.21322" ry="2.92537" fill="#7854F7"/>
    <ellipse cx="3.21322" cy="260.358" rx="3.21322" ry="2.92537" fill="#7854F7"/>
    <ellipse cx="50.3402" cy="260.358" rx="3.21322" ry="2.92537" fill="#7854F7"/>
    <ellipse cx="97.4681" cy="260.358" rx="3.21322" ry="2.92537" fill="#7854F7"/>
    <ellipse cx="144.595" cy="260.358" rx="3.21322" ry="2.92537" fill="#7854F7"/>
    <ellipse cx="191.722" cy="260.358" rx="3.21322" ry="2.92537" fill="#7854F7"/>
    <ellipse cx="3.21322" cy="303.264" rx="3.21322" ry="2.92537" fill="#7854F7"/>
    <ellipse cx="50.3402" cy="303.264" rx="3.21322" ry="2.92537" fill="#7854F7"/>
    <ellipse cx="97.4681" cy="303.264" rx="3.21322" ry="2.92537" fill="#7854F7"/>
    <ellipse cx="144.595" cy="303.264" rx="3.21322" ry="2.92537" fill="#7854F7"/>
    <ellipse cx="191.722" cy="303.264" rx="3.21322" ry="2.92537" fill="#7854F7"/>
    <ellipse cx="3.21322" cy="346.169" rx="3.21322" ry="2.92537" fill="#7854F7"/>
    <ellipse cx="50.3402" cy="346.169" rx="3.21322" ry="2.92537" fill="#7854F7"/>
    <ellipse cx="97.4681" cy="346.169" rx="3.21322" ry="2.92537" fill="#7854F7"/>
    <ellipse cx="144.595" cy="346.169" rx="3.21322" ry="2.92537" fill="#7854F7"/>
    <ellipse cx="191.722" cy="346.169" rx="3.21322" ry="2.92537" fill="#7854F7"/>
    <ellipse cx="3.21322" cy="389.075" rx="3.21322" ry="2.92537" fill="#7854F7"/>
    <ellipse cx="50.3402" cy="389.075" rx="3.21322" ry="2.92537" fill="#7854F7"/>
    <ellipse cx="97.4681" cy="389.075" rx="3.21322" ry="2.92537" fill="#7854F7"/>
    <ellipse cx="144.595" cy="389.075" rx="3.21322" ry="2.92537" fill="#7854F7"/>
    <ellipse cx="191.722" cy="389.075" rx="3.21322" ry="2.92537" fill="#7854F7"/>
</svg>
